<svg xmlns="http://www.w3.org/2000/svg" viewBox="0 0 196.56 196.56"><defs><style>.cls-1{fill:#fb5012ff;}.cls-2{fill:#e9df00ff;}</style></defs><g id="Calque_2" data-name="Calque 2"><g id="artwork"><path class="cls-1" d="M196.56,98.28c0-12.27-2.95-22.22-26.34-22.22a121.67,121.67,0,0,0-25.74,3.09,122.26,122.26,0,0,0,20.39-16c16.53-16.54,11.59-25.66,2.91-34.34S150,15.16,133.44,31.7a121.34,121.34,0,0,0-16,20.39,121.84,121.84,0,0,0,3.09-25.75C120.51,3,110.56,0,98.28,0S76.06,3,76.06,26.34a121.84,121.84,0,0,0,3.09,25.75,121.85,121.85,0,0,0-16-20.39C46.59,15.16,37.47,20.11,28.79,28.79S15.16,46.59,31.7,63.13a121.85,121.85,0,0,0,20.39,16,121.84,121.84,0,0,0-25.75-3.09C3,76.06,0,86,0,98.28s3,22.23,26.34,22.23a121.84,121.84,0,0,0,25.75-3.09,121.34,121.34,0,0,0-20.39,16C15.16,150,20.11,159.1,28.79,167.78s17.8,13.62,34.34-2.91a122.26,122.26,0,0,0,16-20.39,121.67,121.67,0,0,0-3.09,25.74c0,23.39,10,26.34,22.22,26.34s22.23-2.95,22.23-26.34a121.67,121.67,0,0,0-3.09-25.74,121.75,121.75,0,0,0,16,20.39c16.53,16.53,25.66,11.59,34.34,2.91s13.62-17.81-2.91-34.34a121.75,121.75,0,0,0-20.39-16,121.67,121.67,0,0,0,25.74,3.09C193.61,120.51,196.56,110.56,196.56,98.28Z"/><circle class="cls-2" cx="98.28" cy="98.28" r="29.26" transform="translate(-19.95 25.21) rotate(-13.28)"/></g></g></svg>